HIERARCHY
ROOT Hips
{
	OFFSET -3.958830 18.904000 13.208200
	CHANNELS 6 Xposition Yposition Zposition Zrotation Yrotation Xrotation 
	JOINT LHipJoint
	{
		OFFSET 0.000000 0.000000 0.000000
		CHANNELS 3 Zrotation Yrotation Xrotation
		JOINT LeftUpLeg
		{
			OFFSET 1.800000 -1.400000 0.085000
			CHANNELS 3 Zrotation Yrotation Xrotation
			JOINT LeftLeg
			{
				OFFSET 2.215000 -6.000000 0.000000
				CHANNELS 3 Zrotation Yrotation Xrotation
				JOINT LeftFoot
				{
					OFFSET 2.500000 -6.900000 0.000000
					CHANNELS 3 Zrotation Yrotation Xrotation
					JOINT LeftToeBase
					{
						OFFSET 0.200000 -0.500000 1.950000
						CHANNELS 3 Zrotation Yrotation Xrotation
						End Site
						{
							OFFSET 0.000000 0.000000 0.000000
						}
					}
				}
			}
		}
	}
	JOINT RHipJoint
	{
		OFFSET 0.000000 0.000000 0.000000
		CHANNELS 3 Zrotation Yrotation Xrotation
		JOINT RightUpLeg
		{
			OFFSET -1.800000 -1.400000 0.085000
			CHANNELS 3 Zrotation Yrotation Xrotation
			JOINT RightLeg
			{
				OFFSET -2.215000 -6.000000 0.000000
				CHANNELS 3 Zrotation Yrotation Xrotation
				JOINT RightFoot
				{
					OFFSET -2.500000 -6.900000 0.000000
					CHANNELS 3 Zrotation Yrotation Xrotation
					JOINT RightToeBase
					{
						OFFSET -0.200000 -0.500000 1.950000
						CHANNELS 3 Zrotation Yrotation Xrotation
						End Site
						{
							OFFSET 0.000000 0.000000 0.000000
						}
					}
				}
			}
		}
	}
	JOINT LowerBack
	{
		OFFSET 0.000000 0.000000 0.000000
		CHANNELS 3 Zrotation Yrotation Xrotation
		JOINT Spine
		{
			OFFSET -0.087000 1.940000 -0.288900
			CHANNELS 3 Zrotation Yrotation Xrotation
			JOINT Spine1
			{
				OFFSET 0.000000 1.950000 0.060000
				CHANNELS 3 Zrotation Yrotation Xrotation
				JOINT Neck
				{
					OFFSET 0.000000 0.000000 0.000000
					CHANNELS 3 Zrotation Yrotation Xrotation
					JOINT Neck1
					{
						OFFSET 0.000000 1.600000 0.340000
						CHANNELS 3 Zrotation Yrotation Xrotation
						JOINT Head
						{
							OFFSET 0.000000 1.667000 -0.240000
							CHANNELS 3 Zrotation Yrotation Xrotation
							End Site
							{
								OFFSET 0.000000 0.000000 0.000000
							}
						}
					}
				}
				JOINT LeftShoulder
				{
					OFFSET 0.000000 0.000000 0.000000
					CHANNELS 3 Zrotation Yrotation Xrotation
					JOINT LeftArm
					{
						OFFSET 2.700000 1.550000 -0.730000
						CHANNELS 3 Zrotation Yrotation Xrotation
						JOINT LeftForeArm
						{
							OFFSET 5.450000 0.000000 0.000000
							CHANNELS 3 Zrotation Yrotation Xrotation
							JOINT LeftHand
							{
								OFFSET 3.450000 0.000000 0.000000
								CHANNELS 3 Zrotation Yrotation Xrotation
								JOINT LeftHandIndex1
								{
									OFFSET 0.750000 0.000000 0.000000
									CHANNELS 3 Zrotation Yrotation Xrotation
									End Site
									{
										OFFSET 0.000000 0.000000 0.000000
									}
								}
							}
						}
					}
				}
				JOINT RightShoulder
				{
					OFFSET 0.000000 0.000000 0.000000
					CHANNELS 3 Zrotation Yrotation Xrotation
					JOINT RightArm
					{
						OFFSET -2.700000 1.550000 -0.730000
						CHANNELS 3 Zrotation Yrotation Xrotation
						JOINT RightForeArm
						{
							OFFSET -5.450000 0.000000 0.000000
							CHANNELS 3 Zrotation Yrotation Xrotation
							JOINT RightHand
							{
								OFFSET -3.450000 0.000000 0.000000
								CHANNELS 3 Zrotation Yrotation Xrotation
								JOINT RightHandIndex1
								{
									OFFSET -0.750000 0.000000 0.000000
									CHANNELS 3 Zrotation Yrotation Xrotation
									End Site
									{
										OFFSET 0.000000 0.000000 0.000000
									}
								}
							}
						}
					}
				}
			}
		}
	}
}
MOTION
Frames: 14
Frame Time: 0.016667
-1.353960 14.558260 -5.000480 -39.186495 12.737681 11.247410 -15.770211 11.260832 5.954255 -22.636966 -15.856591 -39.099721 19.556155 0.789037 64.826321 1.313681 9.576146 0.974595 1.155150 1.337360 0.857890 18.293622 -8.224910 3.248745 5.132000 10.907437 -26.526252 -63.560894 18.060334 31.676912 -2.446532 -9.726906 0.994696 0.302170 -0.530730 0.278730 -2.890327 -3.562415 -9.356370 14.559204 0.697071 75.626543 1.700152 2.131043 18.447197 0.435088 -0.430793 -14.312933 -7.405573 6.176148 55.142799 11.490040 2.412870 -29.450280 -1.642271 -38.641319 5.090262 16.613419 -17.496879 -6.711663 6.031960 1.798444 -1.561465 -3.644102 2.676805 0.521050 -0.368860 0.497030 -0.189420 -0.693982 40.796064 2.717439 -2.301472 21.765027 -30.054633 -99.088480 15.224711 -34.224679 2.511276 -2.208032 0.649990 -0.244690 -0.385900 -0.076140 
-1.349520 14.550740 -5.017420 -40.492648 9.644439 10.676287 -15.718411 11.478815 5.667671 -20.941703 -14.294481 -39.745406 17.790251 2.365366 64.527579 1.336161 9.463524 1.004941 1.201860 1.408580 0.883010 18.289386 -8.386507 3.358744 5.568947 11.396753 -26.605807 -57.954258 17.376633 33.008208 -2.305624 -9.170735 1.134500 0.319760 -0.550730 0.318550 -2.939101 -3.374921 -9.219440 13.443348 2.750085 75.145166 1.489356 3.724862 19.792076 0.485588 -0.320977 -14.473417 -6.618627 6.238732 54.387535 10.506510 2.993280 -28.902040 -1.032925 -38.538728 6.075544 16.688277 -16.451797 -6.396184 5.797229 2.212118 -1.503410 -3.666043 2.705735 0.466380 -0.359310 0.526920 -0.160830 -1.729469 41.725715 1.954456 -2.168664 22.729100 -30.317075 -99.856355 15.630761 -35.340530 2.554681 -2.244538 0.714970 -0.288140 -0.434570 -0.044910 
-1.330240 14.612960 -5.035110 -41.088678 7.737156 11.335205 -15.706958 11.691963 5.467152 -19.562726 -13.108992 -40.433576 15.550335 3.987801 62.803711 1.272997 9.141717 1.119767 1.249070 1.440620 0.934960 18.258113 -8.478179 3.421366 6.174979 11.538620 -26.698027 -52.684885 16.380434 34.100815 -2.161099 -8.558509 1.296300 0.334480 -0.560620 0.328770 -2.900821 -3.421908 -9.104852 11.825270 5.020788 74.674165 2.121349 5.252665 20.794219 0.229571 -0.215122 -14.754390 -5.845896 6.764235 53.254322 9.976530 4.181500 -28.174790 -0.021786 -38.892714 6.618563 16.854053 -15.448000 -6.189761 5.962138 3.050048 -1.519517 -3.707947 2.705228 0.444040 -0.359810 0.533660 -0.132050 -2.533757 42.888532 1.262098 -2.578897 23.070743 -30.898621 -99.591590 16.571849 -36.041506 2.594926 -2.266236 0.735560 -0.296090 -0.474480 -0.052200 
-1.284550 14.740020 -5.059880 -41.543170 5.482118 12.423973 -15.714533 11.987586 5.203753 -18.127435 -11.498830 -41.198739 13.405979 5.371616 58.956529 1.067946 8.481642 1.334887 1.224410 1.392000 0.939260 18.203913 -8.512404 3.540659 6.866245 12.064554 -26.558096 -47.138905 15.386703 35.543493 -1.989058 -7.884017 1.501098 0.323430 -0.540340 0.290730 -2.796279 -3.663177 -8.965949 9.321068 8.112816 75.273078 3.560819 7.412184 21.119260 -0.175766 -0.872913 -14.914157 -7.193420 7.267092 52.270936 10.192010 4.454450 -28.925120 1.708416 -38.485533 6.749284 16.342147 -15.279084 -5.722993 6.285661 3.983580 -1.515543 -3.744942 2.618707 0.469630 -0.372660 0.519350 -0.130340 -3.717075 44.375021 0.741727 -3.845903 22.429110 -31.959523 -98.412559 18.115381 -36.254108 2.639777 -2.193414 0.689370 -0.230060 -0.454500 -0.076140 
-1.216280 14.862400 -5.120680 -41.194722 3.139840 15.261089 -15.715243 11.913945 5.215562 -18.108009 -11.242729 -43.623949 11.997434 5.815579 53.958741 0.757304 7.576375 1.594382 1.234850 1.357300 0.947790 18.207478 -8.478738 3.636663 6.698870 12.595852 -28.219191 -41.868868 14.448913 37.482362 -1.835443 -7.357463 1.596218 0.364120 -0.551350 0.310190 -2.779664 -3.578130 -8.919548 6.433495 11.314342 74.004975 4.384553 9.114312 21.526807 -0.721789 -0.823323 -14.555524 -6.211756 7.282821 50.761888 10.484470 5.081900 -29.073580 4.022832 -37.724757 7.153054 16.211709 -14.922477 -5.213175 6.607236 4.236656 -1.548023 -3.811648 2.616288 0.508110 -0.376990 0.513350 -0.129930 -5.139765 44.800125 -0.400226 -3.992248 23.557037 -32.214353 -96.445051 19.754213 -36.236233 2.628524 -2.148439 0.644240 -0.234880 -0.433020 -0.124010 
-1.148720 14.948380 -5.180880 -42.462051 0.613899 17.641821 -15.646243 11.845826 5.108211 -16.175671 -10.386137 -46.098476 8.259310 7.231638 49.115816 0.432863 6.815543 1.815188 1.235550 1.280140 0.971810 18.251709 -8.558710 3.828620 7.105861 13.544072 -28.637904 -35.951919 13.580989 41.740714 -1.737651 -7.126348 1.611001 0.385690 -0.544080 0.301010 -2.913219 -3.169370 -8.832581 5.678913 13.054819 72.572623 4.178377 10.794692 22.085265 -1.075077 -1.422331 -14.450289 -6.844917 7.418836 49.565589 12.008000 4.797410 -28.978810 6.461206 -37.106366 7.794110 15.051338 -14.816889 -4.539258 7.598011 4.681908 -1.580312 -3.871865 2.632843 0.567410 -0.395570 0.475110 -0.152170 -6.958480 45.376767 -1.663719 -4.262254 23.954411 -32.755131 -93.585436 22.592217 -36.136268 2.657721 -2.058095 0.570860 -0.216340 -0.390160 -0.183950 
-1.088640 15.058570 -5.252110 -41.048004 -0.050833 20.425457 -15.722310 11.848220 5.329645 -16.481623 -11.149607 -47.450282 4.736003 7.732130 43.275344 0.184743 5.781831 2.191476 1.194310 1.225900 0.921110 18.173845 -8.532983 3.662026 5.407295 13.167436 -29.312535 -30.569476 12.132569 45.857493 -1.640257 -7.021345 1.655784 0.386880 -0.483030 0.268160 -2.704299 -3.581396 -8.790083 2.300368 15.786670 70.835307 5.777990 11.456550 21.778522 -1.429666 -1.027754 -14.426082 -5.431275 7.156408 49.364631 12.835230 4.888260 -27.541290 8.115280 -37.262570 8.069717 15.013615 -14.050822 -4.198982 7.751555 5.139350 -1.580888 -3.954044 2.538968 0.575640 -0.366940 0.422740 -0.141090 -7.549934 46.009793 -2.892812 -5.413266 24.679226 -32.820054 -86.436089 25.746290 -33.421566 2.700679 -1.954297 0.510160 -0.166650 -0.355810 -0.197720 
-1.033250 15.163700 -5.325200 -40.399142 -0.254891 22.920406 -15.719010 11.734908 5.543657 -17.279093 -11.820301 -49.060707 4.433468 6.999978 39.250514 0.032826 4.936667 2.496004 1.210590 1.208660 0.970030 18.172774 -8.633804 3.519443 4.970970 12.596858 -28.888223 -25.113920 9.890522 48.959156 -1.550966 -6.806317 1.704979 0.389470 -0.483640 0.262800 -2.713538 -3.478310 -8.755109 1.049763 16.597515 69.823421 5.631945 11.795557 21.380769 -1.584956 -0.754062 -14.215114 -4.391054 7.018510 49.122704 13.121990 5.177810 -26.805080 9.443153 -37.171476 8.087759 15.999404 -13.477871 -4.342826 7.833458 5.155813 -1.601060 -3.995599 2.500243 0.571300 -0.372100 0.414750 -0.142610 -8.376860 45.875501 -3.970243 -5.442414 25.522132 -32.490683 -80.716262 27.865477 -31.301782 2.768309 -1.913517 0.500470 -0.159120 -0.368120 -0.214850 
-0.983450 15.211230 -5.404660 -41.441926 -2.292404 24.913541 -15.709982 11.669707 5.595224 -17.891511 -11.549315 -52.071768 6.816557 6.145211 38.326824 0.111259 4.549058 2.695746 1.229440 1.335230 0.960050 18.185341 -8.680991 3.526139 6.856735 12.428075 -26.814024 -21.850123 8.523694 50.831730 -1.582336 -6.773292 1.811682 0.410620 -0.458080 0.200180 -2.731423 -3.263958 -8.722620 -0.631965 17.957497 67.650403 4.932428 13.184809 20.840673 -1.199372 -0.623597 -13.884445 -3.653860 7.438249 49.705658 10.178310 6.754170 -25.780510 9.447720 -36.770682 8.322327 17.005019 -13.793176 -4.735231 7.674594 5.792440 -1.441313 -4.010456 2.411881 0.470680 -0.339060 0.436330 -0.057430 -9.120708 46.429925 -4.837183 -3.942422 26.392928 -31.778334 -75.887148 31.357517 -30.651434 2.864713 -1.849885 0.541980 -0.081580 -0.457640 -0.153190 
-0.929340 15.265350 -5.488550 -42.506359 -5.340312 26.647169 -15.730381 11.862611 5.552850 -18.085547 -10.600146 -55.283958 9.314026 5.739325 38.792020 0.277179 4.514099 2.745331 1.276630 1.429720 1.026200 18.138474 -8.771447 3.436627 8.122951 11.642835 -24.267043 -19.287449 7.093516 48.513025 -1.509655 -6.090927 2.106913 0.384570 -0.512180 0.150790 -2.620418 -3.380640 -8.632042 -3.754019 20.618293 66.232386 4.894541 15.016133 18.524166 -0.622393 -1.490574 -13.907099 -5.852661 8.182991 52.059815 7.999260 7.800610 -26.250680 8.356631 -35.982414 8.191099 17.289193 -15.064305 -5.325079 8.265270 6.454884 -1.233355 -3.908963 2.427329 0.439110 -0.385630 0.515230 0.014700 -8.684805 47.988222 -5.310648 -3.597677 27.214147 -29.895065 -65.260495 33.046535 -26.056083 3.033752 -1.849014 0.605050 -0.045970 -0.578870 -0.115220 
-0.873460 15.322340 -5.577160 -41.540614 -7.797208 28.680905 -15.827452 11.972142 5.822595 -18.055742 -11.171193 -59.907447 11.144267 5.857731 42.878392 0.481607 5.271718 2.485322 1.304320 1.477800 1.065330 18.051559 -8.787868 3.081975 7.398137 10.028242 -22.684175 -17.303147 5.676431 44.787611 -1.366069 -5.268310 2.401891 0.369800 -0.584370 0.098270 -2.378912 -3.813313 -8.595015 -7.949704 23.807699 64.829507 6.454085 15.926892 16.255028 -0.453157 -2.825343 -14.476823 -9.448156 9.416634 54.217372 7.345910 8.212480 -27.224260 8.663825 -35.515206 7.437803 16.198263 -16.508940 -5.594709 9.783058 6.748981 -1.045696 -3.802668 2.480021 0.464100 -0.455690 0.575670 0.042200 -8.308677 49.526087 -5.418766 -4.490875 27.903977 -27.183538 -55.101271 31.337436 -20.628137 3.082848 -1.855748 0.627500 -0.032540 -0.650510 -0.110590 
-0.815280 15.371590 -5.659200 -40.708416 -9.781870 29.897948 -15.905116 12.066003 6.041919 -18.232898 -11.742617 -64.364839 15.849469 4.946919 50.221802 0.810831 6.737953 2.007417 1.317130 1.478250 1.119490 17.993382 -8.825410 2.754616 7.287097 8.411276 -20.185256 -16.608104 4.814376 40.812373 -1.274325 -4.571837 2.657311 0.331100 -0.650960 0.056800 -2.215917 -4.085622 -8.586029 -10.790567 26.374658 64.719454 7.307953 16.743962 13.896877 0.189478 -3.856669 -15.542789 -12.678105 10.327072 56.871151 6.511180 8.249660 -28.125070 9.101102 -35.793311 6.485047 16.271167 -17.482725 -6.273434 11.128785 7.066885 -0.952725 -3.731565 2.473315 0.511070 -0.530120 0.636750 0.058110 -8.683669 51.297355 -6.118258 -5.009695 27.757838 -24.383946 -45.372435 28.275221 -15.289232 3.131051 -1.814358 0.636430 -0.011980 -0.702550 -0.119460 
-0.767690 15.385570 -5.737970 -38.756935 -10.323643 30.818870 -15.993293 11.974152 6.419691 -18.883836 -13.755287 -67.967523 21.772241 2.484702 58.974057 1.236284 8.499914 1.444900 1.344380 1.495390 1.179060 17.958411 -8.810478 2.374879 5.996752 7.177380 -18.150750 -14.810358 3.602600 39.295361 -1.244425 -4.240942 2.768027 0.305120 -0.751260 0.035530 -2.090000 -4.252161 -8.672121 -12.520847 27.656224 65.376825 7.596253 16.730113 11.476538 1.073735 -4.199119 -16.728312 -14.151563 10.630993 59.989690 5.779640 8.319400 -29.479550 10.072771 -36.508990 5.562268 16.612459 -18.094593 -6.628001 11.294284 7.612743 -0.872940 -3.668474 2.436142 0.571760 -0.610710 0.707210 0.049540 -10.107010 52.226041 -7.586557 -4.599300 27.612198 -20.857961 -36.640359 23.948017 -10.635321 3.125576 -1.748850 0.658800 -0.036900 -0.749140 -0.141410 
-0.729040 15.365320 -5.808880 -37.124924 -11.133211 31.289444 -16.024953 11.841986 6.649535 -18.653909 -15.143383 -70.495360 28.410408 -1.263516 67.109471 1.678710 10.356004 0.877987 1.389890 1.540150 1.217890 17.969694 -8.852996 2.118537 5.036811 6.560993 -15.826293 -13.976601 2.972462 39.117648 -1.295692 -4.248977 2.756603 0.313120 -0.848060 0.042890 -2.095214 -4.086400 -8.752916 -13.578560 28.405560 66.266086 6.611464 17.095498 8.905664 1.965780 -4.206881 -17.339568 -14.276394 10.601901 62.873803 5.261360 8.570240 -31.442130 10.242436 -37.456041 5.091070 17.328709 -18.920757 -6.817853 10.493480 7.786546 -0.865333 -3.601829 2.391395 0.650390 -0.674580 0.781550 0.048350 -11.215976 52.982989 -9.835089 -3.172506 27.783415 -17.230866 -29.821948 19.328058 -7.239101 3.103733 -1.683478 0.676270 -0.079120 -0.788140 -0.167210 
